<?xml version="1.0" standalone="no"?>
<!DOCTYPE svg PUBLIC "-//W3C//DTD SVG 20010904//EN"
 "http://www.w3.org/TR/2001/REC-SVG-20010904/DTD/svg10.dtd">
<svg version="1.0" xmlns="http://www.w3.org/2000/svg"
 width="310.000000pt" height="310.000000pt" viewbox="0 0 310.000000 310.000000"
 preserveAspectRatio="xMidYMid meet">
<metadata>
Created by potrace 1.11, written by Peter Selinger 2001-2013
</metadata>
<g transform="translate(0.000000,310.000000) scale(0.100000,-0.100000)"
fill="#000000" stroke="none">
<path d="M442 3085 c-159 -38 -311 -161 -381 -308 -21 -45 -44 -106 -50 -135
-8 -36 -11 -383 -11 -1100 0 -1163 -3 -1100 68 -1236 48 -93 145 -190 237
-238 137 -71 75 -68 1245 -68 1170 0 1108 -3 1245 68 92 48 189 145 237 238
71 136 68 73 68 1236 0 717 -3 1064 -11 1100 -20 97 -83 211 -158 286 -76 76
-194 142 -289 161 -82 17 -2130 13 -2200 -4z m866 -586 c1 -115 -2 -216 -9
-247 -21 -102 -144 -321 -250 -444 -27 -31 -49 -59 -49 -62 0 -3 -42 -101 -94
-218 -118 -267 -259 -608 -254 -613 2 -2 26 24 54 58 896 1100 1218 1467 1415
1612 139 102 240 133 301 91 15 -10 42 -48 60 -84 33 -66 33 -67 33 -217 0
-115 -5 -166 -19 -220 -27 -102 -77 -213 -132 -297 -58 -88 -217 -250 -299
-303 -80 -53 -216 -103 -319 -118 l-85 -12 133 -255 c145 -279 212 -388 291
-466 145 -145 350 -152 446 -16 52 75 62 116 68 292 5 134 9 165 20 165 25 0
33 -64 28 -205 -9 -215 -53 -337 -161 -446 -101 -101 -188 -133 -309 -114
-127 20 -204 74 -321 230 -126 167 -195 295 -387 718 l-28 63 80 89 81 90 28
-15 c38 -20 168 -20 244 0 161 42 299 161 381 329 63 127 78 196 73 325 -3 83
-9 115 -25 146 -46 87 -106 112 -184 78 -147 -66 -405 -331 -636 -653 -130
-181 -160 -227 -483 -740 -318 -503 -349 -549 -404 -598 -44 -38 -69 -40 -101
-7 -20 19 -25 34 -25 77 0 30 7 80 15 111 27 105 141 399 289 744 80 188 146
344 146 347 0 3 -11 0 -25 -6 -21 -10 -30 -8 -52 8 -62 47 -153 230 -153 309
0 43 15 45 66 10 46 -31 50 -31 105 3 126 81 274 297 365 532 45 118 52 132
67 127 9 -3 13 -59 15 -198z"/>
</g>
</svg>
