<svg xmlns="http://www.w3.org/2000/svg" width="710" height="274" viewBox="0 0 710 274">
  <g fill="none" fill-rule="evenodd">
    <path fill="#EC1B24" d="M600.953.09h-491.66C49.338.09.848 48.694.848 108.647S49.34 217.204 109.29 217.204h491.66c59.954 0 108.558-48.604 108.558-108.557S660.906.09 600.953.09"/>
    <path fill="#FFF" d="M691.742 108.647c0 50.095-40.694 90.79-90.79 90.79h-491.66c-50.095 0-90.675-40.695-90.675-90.79 0-50.095 40.58-90.79 90.675-90.79h491.66c50.096 0 90.79 40.695 90.79 90.79zm-90.79-74.855h-491.66c-41.268 0-74.855 33.472-74.855 74.855s33.587 74.855 74.855 74.855h491.66c41.27 0 74.856-33.472 74.856-74.855s-33.587-74.855-74.855-74.855z"/>
    <path fill="#FFF" d="M235.388 142.235l-36.11-88.04H134.4V75.06h10.2l-27.855 66.945h-9.63v20.06h35.308l8.942-22.123h40.35l9.172 22.124h44.592v-19.83h-10.088zm-75.084-24.073l11.12-27.283 11.348 27.282h-22.468zM366.987 99.59V64.056c0-5.388-4.356-9.63-9.63-9.63H252.584V75.06h10.66v66.945h-10.66v20.06h104.775c5.273 0 9.63-4.355 9.63-9.743V120.11c0-5.387-4.357-10.202-9.63-10.202 5.273 0 9.63-4.93 9.63-10.317zm-42.873 42.415H305.2v-20.06h18.914v20.06zm0-47.458H305.2V75.06h18.914v19.487zM445.625 54.196v83.797c0 2.75-1.72 4.012-3.324 4.012h-12.723c-1.605 0-3.325-1.26-3.325-4.012V54.196h-50.897V75.06h10.088v74.167c0 7.45 3.783 12.84 12.954 12.84h75.084c9.286 0 12.955-5.39 12.955-12.84V75.06h10.202V54.196h-51.012M543.637 98.79V75.06h18.685v9.973h41.956V66.347c0-6.992-5.044-12.15-12.38-12.15H516.81c-8.826 0-12.953 6.877-12.953 11.92v52.388h58.347v23.73h-18.685v-9.974l-39.434.002v18.685c0 6.992 5.044 12.265 12.38 12.265h75.085c8.827 0 12.954-6.992 12.954-12.036V98.79h-60.87"/>
    <g fill="#231F20">
      <path d="M130.27 238.526c-.23-5.273-4.586-6.992-8.598-6.992-2.865 0-7.91.802-7.91 6.075 0 2.98 2.064 3.897 4.128 4.355l9.973 2.293c4.47 1.032 7.795 3.783 7.795 9.285 0 8.254-7.566 10.546-13.527 10.546-6.418 0-8.94-1.95-10.545-3.325-2.866-2.75-3.554-5.617-3.554-8.827h4.472c0 6.305 5.158 8.14 9.514 8.14 3.44 0 9.17-.918 9.17-5.847 0-3.667-1.72-4.814-7.45-6.19l-7.107-1.604c-2.294-.573-7.338-2.178-7.338-8.254 0-5.387 3.44-10.66 11.922-10.66 12.15 0 13.297 7.22 13.527 11.004h-4.47M144.484 248.5c0-3.898 3.095-7.566 6.993-7.566 5.158 0 6.763 3.668 6.992 7.565h-13.986zm13.87 6.763c-.228 1.834-2.52 4.93-6.533 4.93-4.928 0-7.336-3.096-7.336-8.37h18.456c0-8.94-3.553-14.672-10.89-14.672-8.368 0-12.15 6.19-12.15 13.986 0 7.336 4.24 12.724 11.348 12.724 4.012 0 5.617-.917 6.878-1.72 3.095-2.177 4.356-5.73 4.47-6.877h-4.24zM183.803 246.32c-.573-3.323-2.407-5.386-5.96-5.386-5.274 0-6.993 5.043-6.993 9.514 0 4.356 1.032 9.744 6.878 9.744 2.866 0 5.388-2.178 6.075-5.96h4.127c-.458 4.01-2.866 9.628-10.317 9.628-7.107 0-11.348-5.388-11.348-12.724 0-7.795 3.782-13.985 12.15-13.985 6.65 0 9.17 4.815 9.515 9.17h-4.127M208.68 263.172v-3.668l-.116-.114c-1.834 2.98-4.012 4.47-8.024 4.47-3.783 0-8.254-1.834-8.254-7.795v-18.227h4.242v16.737c0 4.24 2.178 5.617 4.93 5.617 5.387 0 6.992-4.7 6.992-8.483v-13.872h4.24v25.334h-4.01M223.925 263.172h-4.24v-25.334h3.896v4.242h.116c1.72-2.98 4.012-4.93 7.107-4.93.573 0 .803 0 1.146.115v4.356h-1.605c-4.013 0-6.42 3.096-6.42 6.765v14.787M240.203 263.172h-4.242v-25.334h4.243v25.334zm-4.242-29.92v-4.813h4.243v4.813h-4.242zM251.78 241.392v16.393c0 2.063 1.72 2.063 2.637 2.063h1.49v3.324c-1.604.115-2.75.344-3.21.344-4.24 0-5.158-2.407-5.158-5.502v-16.622h-3.44v-3.553h3.44v-6.994h4.24v6.993h4.128v3.552h-4.127M275.854 237.84h4.7c-2.98 8.252-5.847 16.506-9.17 24.76-4.013 10.316-4.357 10.89-9.86 10.89-.573 0-1.146-.23-1.834-.344v-3.898c.574.115 1.49.458 2.637.458 2.178 0 2.407-.687 4.47-5.846l-9.4-26.02h4.815l6.764 20.633h.114l6.764-20.634M292.82 228.44h28.085v4.125h-11.693v30.607h-4.7v-30.607H292.82v-4.126M322.28 248.5c0-3.898 3.095-7.566 6.993-7.566 5.273 0 6.878 3.668 7.107 7.565h-14.1zm13.87 6.763c-.114 1.834-2.52 4.93-6.533 4.93-4.815 0-7.337-3.096-7.337-8.37h18.456c0-8.94-3.553-14.672-10.89-14.672-8.254 0-12.037 6.19-12.037 13.986 0 7.336 4.126 12.724 11.234 12.724 4.126 0 5.73-.917 6.878-1.72 3.21-2.177 4.355-5.73 4.47-6.877h-4.24zM361.714 246.32c-.573-3.323-2.407-5.386-6.076-5.386-5.273 0-6.878 5.043-6.878 9.514 0 4.356 1.032 9.744 6.878 9.744 2.866 0 5.273-2.178 6.076-5.96h4.127c-.458 4.01-2.98 9.628-10.316 9.628-7.107 0-11.35-5.388-11.35-12.724 0-7.795 3.784-13.985 12.152-13.985 6.65 0 9.056 4.815 9.515 9.17h-4.126M390.6 263.172h-4.24v-16.62c0-3.44-.917-5.618-5.044-5.618-3.44 0-6.992 2.063-6.992 8.482v13.756h-4.242V228.44h4.242v12.837h.114c1.147-1.604 3.325-4.126 7.337-4.126 3.897 0 8.826 1.605 8.826 8.713v17.31M426.023 244.602h15.246v18.57h-3.096l-1.146-4.585c-2.293 3.324-6.65 5.503-11.35 5.503-5.96 0-8.94-2.178-10.66-4.013-5.387-4.93-5.502-10.89-5.502-14.558 0-8.484 5.158-18 16.507-18 6.42 0 13.64 3.67 14.673 11.465h-4.585c-1.49-6.076-6.533-7.337-10.43-7.337-6.19 0-11.35 5.044-11.35 14.1 0 7.107 2.408 14.33 11.58 14.33 1.718 0 4.584-.23 7.106-2.293 3.095-2.408 3.783-5.503 3.783-9.17h-10.777V244.6M451.242 248.5c0-3.898 3.21-7.566 7.108-7.566 5.158 0 6.763 3.668 6.992 7.565h-14.1zm13.87 6.763c-.114 1.834-2.406 4.93-6.42 4.93-4.928 0-7.45-3.096-7.45-8.37h18.57c0-8.94-3.667-14.672-10.89-14.672-8.368 0-12.15 6.19-12.15 13.986 0 7.336 4.24 12.724 11.348 12.724 4.012 0 5.617-.917 6.764-1.72 3.21-2.177 4.356-5.73 4.585-6.877h-4.357zM479.67 263.172h-4.24v-25.334h4.012v4.242h.115c1.72-2.98 3.897-4.93 7.107-4.93.46 0 .802 0 1.146.115v4.356h-1.605c-4.012 0-6.534 3.096-6.534 6.765v14.787M492.166 237.84h4.012v3.552h.115c.917-1.375 3.095-4.24 7.566-4.24 4.584 0 6.075 2.75 6.762 4.125 2.064-2.407 3.783-4.126 7.68-4.126 2.752 0 7.91 1.376 7.91 8.483v17.54h-4.24V246.78c0-3.44-1.147-5.846-4.7-5.846-3.555 0-5.962 3.44-5.962 6.763v15.475h-4.24v-17.54c0-2.177-.804-4.698-4.014-4.698-2.407 0-6.648 1.604-6.648 8.482v13.756h-4.242v-25.334M547.878 254.346c0 3.44-3.898 5.96-7.91 5.96-3.21 0-4.585-1.604-4.585-4.355 0-3.21 3.324-3.897 5.502-4.126 5.274-.688 6.305-1.032 6.993-1.605v4.126zm-11.693-8.827c.344-1.95 1.032-4.93 5.847-4.93 4.012 0 5.96 1.49 5.96 4.126 0 2.522-1.26 2.98-2.292 2.98l-6.993.918c-7.107.917-7.68 5.846-7.68 7.91 0 4.356 3.324 7.336 7.91 7.336 4.93 0 7.45-2.292 9.17-4.127.115 1.95.688 3.898 4.47 3.898.918 0 1.606-.343 2.294-.458v-3.095c-.458 0-1.03.115-1.375.115-.917 0-1.376-.344-1.376-1.49v-14.56c0-6.418-7.337-6.99-9.4-6.99-6.19 0-10.203 2.29-10.432 8.367h3.897zM579.86 263.172h-4.24v-15.59c0-4.47-1.262-6.648-5.39-6.648-2.406 0-6.647 1.604-6.647 8.482v13.756h-4.242v-25.334h4.013v3.554h.115c.803-1.376 3.21-4.24 7.566-4.24 3.897 0 8.827 1.603 8.827 8.71v17.31M601.297 237.84h4.7c-2.98 8.252-5.846 16.506-9.17 24.76-4.013 10.316-4.357 10.89-9.86 10.89-.687 0-1.145-.23-1.833-.344v-3.898c.573.115 1.49.458 2.636.458 2.178 0 2.408-.687 4.47-5.846l-9.4-26.02h4.816l6.763 20.633h.114l6.763-20.634"/>
    </g>
  </g>
</svg>
