<svg xmlns="http://www.w3.org/2000/svg" width="250" height="57.212" viewbox="0 0 250 57.212" version="1">
  <path fill="#ec1b24" fill-rule="evenodd" d="M30.365 39.16c0-3.142-2.32-5.317-7.188-5.317h-9.754V44.56h9.992c4.075 0 6.95-1.45 6.95-5.4zM28.61 17.89c0-3.064-2.082-5.16-5.195-5.16h-9.992v10.154h9.754c3.51 0 5.433-2.578 5.433-4.995zm16.298 22.8c0 9.19-8.467 15.233-17.02 15.233H0V1.367h25.567c9.834 0 16.942 4.912 16.942 14.99 0 8.623-7.506 11.2-7.506 11.2 0 .082 9.904 2.34 9.904 13.134M86.65 28.606c0-8.542-3.916-15.472-11.66-15.472-7.752 0-11.588 6.93-11.588 15.472 0 8.622 3.836 15.55 11.588 15.55 7.744 0 11.66-6.928 11.66-15.55zm13.422 0c0 16.035-9.19 28.606-25.082 28.606-15.82 0-25.09-12.57-25.09-28.606C49.9 12.65 59.17 0 74.98 0c15.903 0 25.092 12.65 25.092 28.606M146.93 39.403c0 12.007-10.866 17.81-21.088 17.81-11.826 0-17.903-4.513-22.692-10.234l8.705-8.545c3.678 4.675 8.475 7.012 13.828 7.012 4.392 0 7.347-2.175 7.347-5.4 0-3.464-2.61-4.543-9.754-6.043l-1.914-.403c-8.6-1.805-15.663-6.686-15.663-16.437C105.7 6.447 114.41 0 125.92 0c9.745 0 16.06 4.19 19.896 8.537l-8.475 8.385c-2.637-2.822-6.633-5.078-11.183-5.078-3.113 0-6.632 1.45-6.632 5.078 0 3.303 3.66 4.502 8.307 5.48l1.923.403c7.78 1.632 17.17 4.03 17.17 16.598M198.822 45.366c-5.592 8.06-10.786 11.846-21.572 11.846-15.337 0-25.25-12.732-25.25-28.93C152 12.893 160.952.08 177.41.08c9.03 0 15.503 3.545 21.015 11.845L187.4 19.26c-2.24-3.87-5.114-6.126-9.912-6.126-6.068 0-11.906 5.428-11.906 15.15 0 10.893 6.314 15.873 12.312 15.873 5.185 0 7.584-2.58 9.824-6.285l11.104 7.494M250 55.923h-14.384V34.408H219.07v21.515h-14.295V1.367h14.296v20.066h16.546V1.367H250v54.556"/>
</svg>
