<svg xmlns="http://www.w3.org/2000/svg" width="390" height="115" viewBox="0 0 390 115">
  <g fill="#000" fill-rule="nonzero">
    <path d="M18.7 41.8c0-1-.5-2.5 7.9-2.5 25.1 0 25.5 12.8 25.5 19.8 0 6.6-3.9 14.7-18.5 14.7-15.5 0-15-2.3-15-10.2V41.8h.1zm0-29c0-6.3-.5-6.8 6.3-6.8 11 0 21 5.3 21 17.1 0 5.1-.9 10.6-18.8 10.6-9.8 0-8.5-.5-8.5-4V12.8zM9.3 65.6c0 8.5-3 9.1-4.2 9.4-2 .7-3.3 1-3.3 2.1 0 1 2.2 1.2 2.7 1.2 5 0 10.2-.4 15.2-.4 3.7 0 10.3.4 14.2.4 21.3 0 26.8-15.9 26.8-23.1 0-18.1-17.2-18.4-17.2-20.1 0-.8 10.3-4.4 10.3-15.5C53.8 11.5 48.7 1 29.5 1c-8.7 0-13.1.4-17.5.4S5.5 1 3.3 1C2 1 .4.9.4 2.5c0 2.2 8.9 1.1 8.9 9.4v53.7zM82.4 9.6c0-4.3 2.3-4 6.2-4 10.7 0 20.9 3.5 20.9 16.8 0 13.5-10.5 14-15.2 14-5.1 0-11.9.5-11.9-1.5V9.6zm21.7 29.6c7.6-3.1 13.8-10.8 13.8-19.3C118-1.2 93.6 1 91.8 1c-5.7 0-11.9.4-18.2.4-5.6 0-5-.4-7-.4-1.3 0-2.2.7-2.2 1.3C64.4 6 73 1.5 73 12v55.6c0 8.3-7.2 6.8-7.2 9.5 0 .7.4 1.2 1.1 1.2 4.1 0 8.3-.4 12.4-.4 9.1 0 11.6.4 12.6.4.9 0 1.9.2 1.9-.9 0-3.7-11.4-.3-11.4-9.7v-23c0-1.1-.7-3.1 2.8-3.1 12.2 0 10.6-.3 14.5 5.8l12.1 19.1c4.1 6.2 8.4 11.8 16.4 11.8 1 0 7.1 0 7.1-1.3 0-2.6-5.3 1.4-13.2-10.6l-18-27.2zM190.5 74.7c-5.8 2.8-12.6 4.3-20.1 4.3-23.7 0-38.2-16.8-38.2-39.8 0-22.7 17.7-39.2 40.1-39.2 8.4 0 16.1 2.3 22.4 6.4 1.6 1 3.1 2.1 4.5 3.4 7.8 6.9 12.5 17 12.5 28.9 0 10.7-3.2 19.8-8.9 26.6-2.6-1.8-5-4.7-5-4.7 2.7-4.9 4.3-10.9 4.3-17.8 0-9.8-3.4-19.4-9.5-26.4-1.4-1.6-2.9-3.1-4.6-4.4-5.1-4-11.5-6.4-18.8-6.4-17.4 0-27.4 14.4-27.4 30.8 0 19.2 12.6 37.8 33.1 37.8 4.2 0 8.1-.9 11.7-2.7-.1-.2 2.1 2.1 3.9 3.2"/>
    <path d="M190.8 19.1c-2.7 4.9-4.2 11-4.2 17.1 0 10 3.4 19.8 9.5 26.9 1.4 1.6 2.9 3.1 4.6 4.4 5.1 4 11.5 6.5 19 6.5 15.2 0 27.3-12.1 27.3-31.3 0-18.9-12.8-37.3-33-37.3-4.7 0-8.8 1-12.4 2.9-2.3-2.3-4.2-3.5-4.2-3.5 5.8-3.1 12.5-4.8 19.8-4.8 22.3 0 39.4 16 39.4 38.6 0 24.6-16.9 40.4-41.3 40.4-8.5 0-15.8-2.2-21.7-6-1.5-1-3-2.1-4.3-3.3-7.8-7.1-12.2-17.9-12.2-30.5 0-9.7 3.2-18.3 8.7-24.9 0 0 2.5 1.7 5 4.8M302.1 14.8c2.1-1.9 7.7-6.8 7.8-8.8 0-2-6.1-1.7-6.1-3.6 0-.9.5-1.3 1.4-1.3 4 0 5.8.4 11.6.4 5.7 0 6.6-.4 10-.4.7 0 2 .1 2 .9 0 3.5-2.5-.7-15 9.5l-25.5 22.7c-1 .9-1.6 1.4-1.6 2 0 .7.8 1.3 1.6 2.2l30.4 31.8c7.6 7.3 11.6 3.5 11.6 6.9 0 .9-.5 1.4-1.3 1.4-2.2 0-4.5-.4-6.7-.4-2.3 0-4.5.4-6.8.4-1.4 0-2.3-1.7-3.3-2.7l-30.8-32.1c-.7-.8-1.4-1.1-2-1.1-.5 0-1 .3-1 1.1v22.8c0 12.1 10.7 7 10.7 10.9 0 1.1-2.3 1.1-2.9 1.1-.3 0-2.3-.4-10.7-.4-5.6 0-9 .4-10.7.4-1.2 0-2.7-.1-2.7-1.7 0-1.7 7 .1 7-9.2V11.5c0-9.1-8.4-6.4-8.4-9.3 0-1 .4-1.2 1.4-1.2 3.5 0 7 .4 10.6.4 4.6 0 8-.4 11.2-.4.5 0 .9.3.9 1 0 2.4-6.3 1.3-6.3 9.1v23.1c0 .7.2 1.1.5 1.1s.8-.1 1.2-.5l21.9-20zM337.2 58.9c-.4-2.2.1-3.4 1.2-3.4 1.5 0 1.5 1.3 2.1 3.6 1.3 5 7.9 15.1 22.9 15.1 10.4 0 20.1-5.3 20.1-15.5 0-21.1-43.9-8.9-43.9-38.2C339.6 6.6 351.3 0 363.8 0c13.2 0 16.8 3.9 18.3 3.9 1 0 1.2-1.2 2.3-1.2.7 0 1.2.3 1.3 1.5l1.6 14.8c.1.9-.1 1.6-1.2 1.6-1.2 0-2-2.3-2.3-3.3-3.3-9.4-11.2-12.8-20.9-12.8-8.6 0-17.4 3.7-17.4 12.4 0 20.5 43.9 8.4 43.9 39.1 0 9.2-6.4 22.9-31.2 22.9-8.1 0-18-4-18.4-6l-2.6-14zM127 102.3c0 1.1 0 1.3 1.1 1.3h1.6c2.2 0 2.3-2.4 2.8-2.4.2 0 .5-.1.5.6l.2 4.6c0 .3.2 1.3-.4 1.3-.8 0-.1-2.7-2.8-2.7h-2c-1.2 0-1.1.3-1.1 1.8v3.3c0 1.6-.1 2.5 1.7 2.5 6.3 0 6-3.4 6.9-3.4.1 0 .3.1.3.6 0 2-1.5 4.1-3.6 4.1-3.9 0-5.4-.1-6.7-.1-.8 0-1.9.1-3.3.1-.3 0-.5-.1-.5-.3 0-1.2 1.9.2 1.9-2.9v-12c0-2.3-2.9-1.5-2.9-2.5 0-.2.2-.4.6-.4 1 0 2.9.1 6.8.1 1.8 0 3.6-.1 5.8-.1.3 0 .5.3.5.5l.1 2.5c0 .3.1 1.2-.4 1.2-1.2 0 .8-3-4.2-3-3.1 0-3.2 0-3.2 1.8v3.5h.3zM142 100.6c0-4.9-2.9-3.2-2.9-4.5 0-.2.1-.4.4-.4.5 0 .9.1 1.4.1.7 0 1.3-.1 2.7-.1.8 0 .5.2 1 .7l10.3 11.3c.3.3.6.7.8.7.2 0 .2-.3.2-1v-8.5c0-2.3-3.1-1.9-3.1-2.7 0-.2.1-.4.4-.4.4 0 1.1.1 2.9.1 1.6 0 2.5-.1 2.7-.1.5 0 .5.3.5.3 0 .8-2.2.1-2.2 2.8v14.3c0 .6 0 .8-.3.8-.4 0-.5-.2-.7-.4L144 100.4c-.2-.2-.3-.3-.5-.3s-.2.2-.2.4v8.7c0 4.9 3.3 3.2 3.3 4.4 0 .4-.6.3-1 .3-1.2 0-2.1-.1-3-.1-.8 0-1.5.1-2.2.1-.3 0-.8.1-.8-.3 0-1 2.5-.6 2.5-3.2v-9.8h-.1zM180.3 101.7c0 .3-.2.5-.6.5-.6 0-.6-5.6-7.3-5.6-2.4 0-5.7 1.6-5.7 8 0 3.5 1.8 8.2 5.9 8.2 4.6 0 4.7-2.2 4.7-3.6 0-4-3-2.3-3-3.2 0-.8.8-.5 1.2-.5 1.2 0 2.4.1 3.6.1.9 0 1.8-.1 2.8-.1.1 0 .3.1.3.4 0 1.1-1.8-.3-1.8 3 0 1.1.1 1.8.1 2.1 0 .4 0 .5-.3.7-2.4 1.3-5.3 2.5-8 2.5-7.5 0-8.6-6.6-8.6-8.6 0-4.3 2.6-9.9 9.1-9.9 3.6 0 5.7 1.7 6.4 1.7.6 0 .6-.7 1-.7s.4.6.4 1v4h-.2zM191.3 110c0 1.6-.1 2.5 1.7 2.5 6.3 0 6-3.4 6.9-3.4.1 0 .3.1.3.6 0 2-1.5 4.1-3.6 4.1-3.9 0-5.4-.1-6.7-.1-.8 0-1.9.1-3.3.1-.3 0-.5-.1-.5-.3 0-1.2 1.9.2 1.9-2.9V98.5c0-2.2-2.9-1.5-2.9-2.4 0-.2.3-.4.8-.4 1 0 2.5.1 3.5.1 2.2 0 2.5-.1 2.9-.1.5 0 .7 0 .7.3 0 1-1.8 0-1.8 2v12h.1zM214 106.2c.5 0 .8 0 .8-.2 0-.4-.2-.6-.3-1l-2.1-4.6c-.2-.2-.1-.2-.2-.2 0 0-.1 0-.3.3l-2 4.5c-.1.3-.3.6-.3 1 0 .2.4.2.8.2h3.6zm-4.3 1.3c-.4 0-1 .1-1.6 1.8-.2.5-.5 1.4-.5 2 0 1.9 2.8 1.4 2.8 2.1 0 .5-.8.4-1.3.4-.8 0-1.6-.1-2.4-.1-.8 0-1.5.1-2.2.1-.4 0-.8 0-.8-.3 0-.6 1.3-.4 2-1.9l6.9-15.5c.2-.4.3-.9.6-.9.2 0 .3 0 .6.8l6.9 15.6c.8 1.8 2.2.8 2.2 1.7 0 .4-.2.4-.9.4-.9 0-1.6-.1-3.3-.1-1.1 0-2.1.1-2.8.1-.5 0-.8 0-.8-.3 0-.8 1.8-.5 1.8-2 0-.6-.2-1-.4-1.7-.8-2-1-2.3-1.6-2.3h-5.2v.1zM228.7 100.6c0-4.9-2.9-3.2-2.9-4.5 0-.2.1-.4.4-.4.5 0 1 .1 1.4.1.7 0 1.3-.1 2.7-.1.8 0 .5.2 1 .7l10.3 11.3c.3.3.6.7.8.7.1 0 .2-.3.2-1v-8.5c0-2.3-3.1-1.9-3.1-2.7 0-.2.1-.4.4-.4.4 0 1.2.1 2.9.1 1.6 0 2.5-.1 2.7-.1.5 0 .5.3.5.3 0 .8-2.2.1-2.2 2.8v14.3c0 .6 0 .8-.3.8-.4 0-.5-.2-.7-.4l-12.3-13.3c-.2-.2-.3-.3-.5-.3s-.2.2-.2.4v8.7c0 4.9 3.3 3.2 3.3 4.4 0 .4-.6.3-1 .3-1.3 0-2.1-.1-3-.1-.8 0-1.5.1-2.2.1-.3 0-.8.1-.8-.3 0-1 2.5-.6 2.5-3.2v-9.7h.1zM255.5 99.1c0-1.8.1-2.4 2.1-2.4 6.4 0 7.6 5.8 7.6 8.3 0 5.3-2.8 7.9-6.8 7.9-1 0-2.9-.2-2.9-1.9V99.1zm-3.2 12.1c0 2.3-2 1.3-2 2.3 0 .5.6.4 1 .4.8 0 1.6-.1 2.3-.1 1 0 2.4.1 5.3.1 2.7 0 9.4-2.3 9.4-9.7 0-8-7.4-8.4-10.9-8.4-1.3 0-2.6.1-3.9.1-2.6 0-3.1-.1-3.5-.1-.2 0-.4.1-.4.4 0 .9 2.7.1 2.7 2.7v12.3z"/>
  </g>
</svg>
