<svg xmlns="http://www.w3.org/2000/svg" width="738.753" height="262.107" viewbox="0 0 738.753 262.107">
  <path fill="#043068" fill-rule="evenodd" d="M546.96 229.184h13.184c2.507 0 5.246.962 4.233 4.753-.95 3.576-3.96 4.855-6.258 4.855H544.4l2.558-9.608zm-18.57 30.856h10.354l3.723-13.988h12.868c3.202 0 5.138 1.335 3.717 6.67-1.064 4.007-1.426 5.552-.933 7.318h11.316c-1.302-1.924-.266-6.41.232-8.28.99-3.733 1.833-9.5-2.518-10.19l.028-.107c4.736-1.55 7.4-4.538 8.635-9.184 1.04-3.9.996-10.356-9.57-10.356H538.54l-10.15 38.116zm-42.882-.003h35.818l1.936-7.26h-25.464l2.332-8.754h23.963l1.85-6.937h-23.97l2.106-7.905h25.248l1.935-7.26H495.66l-10.152 38.117zm-39.89 0h33.577l2.014-7.583H457.99l8.132-30.533H455.77l-10.153 38.117zm-39.892 0h33.577l2.015-7.583H418.1l8.132-30.533h-10.355l-10.15 38.117zm-29.72-40.622h9.394l1.68-6.298h-9.398l-1.675 6.298zm15.267 0h9.394l1.68-6.298h-9.4l-1.674 6.298zm-30.13 26.958c-1.14 4.272-3.39 14.73 16.092 14.73s22.803-10.458 23.94-14.73l6.514-24.45h-10.362l-5.828 21.886c-.99 3.734-2.83 10.037-12.33 10.037s-7.984-6.303-6.988-10.038l5.828-21.888h-10.36l-6.508 24.45zm-35.52 2.988l-4.012-27.437H306.4l-10.15 38.116h10.038l8.13-30.534h.103l3.933 30.533h8.652l20.196-30.534h.102l-8.13 30.533h10.037l10.15-38.117h-15.215l-18.622 27.438zm-62.274 5.812h6.625l2.722-10.197h10.208l1.765-6.62h-10.208l2.716-10.19h-6.626l-2.72 10.19h-10.21l-1.765 6.62h10.208l-2.716 10.197zm-71.11 4.865h10.355l4.408-16.546h21.457l-4.408 16.547h10.355l10.152-38.116h-10.356l-3.808 14.31H208.94l3.807-14.31h-10.355l-10.152 38.117zm-.122-23.7c1.947-13.134-9.116-15.482-18.294-15.482-13.88 0-24.122 5.98-27.89 20.127-3.764 14.147 3.293 20.122 17.167 20.122 12.122 0 22.47-4.59 26.71-15.69h-11.267c-2.62 6.03-8.114 8.43-13.133 8.43-9.823 0-9.857-7.684-8.477-12.862 1.375-5.177 5.506-12.867 15.33-12.867 5.392 0 9.2 2.722 8.697 8.222h11.158zm-50.05-3.364c2.18-10.785-9.105-12.115-16.953-12.115-11.956 0-19.816 3.47-22.08 11.957-2.07 7.79 3.81 9.766 10.158 10.78l9.06 1.442c3.943.64 6.076 1.443 5.295 4.38-.882 3.304-4.578 4.747-9.433 4.747-4.48 0-9.472-.905-8.187-6.14H98.294c-3.067 11.906 8.686 13.078 17.97 13.078 15.002 0 21.328-5.71 23.218-12.81 1.85-6.94-2.74-9.553-9.382-10.673l-12.415-2.084c-2.557-.43-3.966-1.55-3.423-3.576.68-2.563 3.967-4.487 8.24-4.487 4.164 0 8.77.538 8.09 5.5h11.476zm-89.05 13.4c-1.138 4.27-3.39 14.734 16.092 14.734s22.804-10.463 23.94-14.735l6.514-24.45H89.21l-5.83 21.887c-.995 3.74-2.834 10.037-12.335 10.037-9.5 0-7.984-6.298-6.988-10.038l5.828-21.888H59.53l-6.513 24.45zm-37.31-2.67h14.196c3.633 0 5.075 1.6 4.278 4.59-.64 2.404-2.422 4.486-5.625 4.486H13.29l2.417-9.077zM1 260.038h27.172c11.527 0 15.6-6.462 16.947-11.532 1.097-4.108-.085-8.487-4.318-9.234l.028-.108c3.876-1.12 6.32-4.696 7.102-7.633 1.878-7.044-2.62-9.607-8.17-9.607H11.15L1 260.038zm18.656-31.172H32.63c4.268 0 4.884 1.703 4.245 4.108-.758 2.83-2.592 4.108-4.99 4.108h-14.42l2.19-8.216zm266.79-134.993l-167.397-.03-8.85 33.024h167.395c9.144 0 18.64-7.4 21.067-16.55 2.433-9.145-3.073-16.444-12.217-16.444m32.757-54.7c33.63 0 55.03 23.725 52.834 55.333l-28.253.148-8.41 31.5 29.94.005c-9.138 31.207-41.375 55.93-72.69 55.93H75.972c-29.1 0-47.774-25.81-39.547-55.024L70.29 1h73.77l-10.338 38.178 185.48-.006zm415.176 87.7l-25.367 94.39h-74.13l29.644-110.365c2.58-9.274-2.926-16.806-12.194-16.823h-39.876l-23.636 88.29h-71.223l23.647-88.29-55.544-.005-23.96 88.296h-74.283l15.096-56.325h30.127l8.358-31.404h-29.99l.407-2.082 14.407-53.49 245.663.073c48.352 0 76.31 39.378 62.855 87.736"/>
</svg>
