<svg xmlns="http://www.w3.org/2000/svg" width="402" height="85" viewBox="0 0 402 85">
  <path fill="#000" d="M93.8 84.3L98.6 66H19.1s-21.5.4-17.7-20.2L6 28.6S8.7 13 29 12h29.8s9.6.4 12.6 7.4c0 0 5.4-6.7 18.4-7.4h66.8s12.9-.3 17.3 9c0 0 5.4-8.1 19.9-9H243l3.2-12h22.3l-3.2 12h59.6s8.9.1 12.6 7.6c0 0 6.4-7.1 18.7-7.6h41.5l-14 54H253.5s-19.7 1-19.7-16.9c0 0-3.8 16.4-24.5 16.9H166s-3.1 17.2-24.2 18.2h-48v.1z"/>
  <path fill="#FFF" d="M50.9 32.3c-.5 1.9-1.6 2.9-3.3 2.9H24.9l.7-2.7c.5-1.9 1.7-2.8 3.7-2.8H49c1.7 0 2.3.8 1.9 2.6zM57 19.5H31c-9.8 0-15.6 3.6-17.6 10.9L9 46.7c-2.1 7.9 1.7 11.8 11.5 11.8H56l2.9-10.8H24.5c-2 0-2.7-.9-2.3-2.6l.7-2.5h27.9c6.8 0 10.8-2.7 12.4-8.5l1.5-5.6c1.6-5.9-.9-9-7.7-9zm53.9 0H91.8c-10.5 0-16.9 4.3-19.2 12.8l-7 26.2h12.8l7.1-26.3c.5-1.7 1.7-2.6 3.6-2.6h19.1l2.7-10.1zm106.7 12.7l-3.5 13c-.4 1.6-1.6 2.5-3.7 2.5H188c-2 0-2.7-.9-2.2-2.6l3.5-12.9c.5-1.7 1.7-2.6 3.6-2.6h22.4c2 .1 2.7.9 2.3 2.6zm.4-12.7h-22.4c-10.5 0-16.9 4.3-19.2 12.8l-3.6 13.4c-2.3 8.6 1.8 12.8 12.3 12.8h22.4c10.5 0 16.9-4.3 19.2-12.7l3.6-13.5c2.3-8.5-1.8-12.8-12.3-12.8zm-63.5 12.7l-3.5 13c-.4 1.6-1.6 2.5-3.7 2.5H125c-2 0-2.7-.9-2.2-2.6l3.5-12.9c.5-1.7 1.7-2.6 3.6-2.6h22.4c1.9.1 2.7.9 2.2 2.6zm.4-12.7h-22.4c-10.5 0-16.9 4.3-19.2 12.8l-3.6 13.4c-2.3 8.6 1.8 12.8 12.3 12.8h22.4c.6 0 1.2-.1 1.8-.1h1.2l-1 3.9c-.6 2.4-2.4 3.7-5.1 3.7h-34.9l-2.9 10.8h36.1c10.5 0 16.9-4.3 19.2-12.8l7.7-28.7c.1-.3.3-1.2.5-2l.2-.8c2.3-8.7-1.8-13-12.3-13zm168.4 10.8l-.4 1.4c-.8 3.1-3.3 4.6-7.4 4.6h-29.4l1.3-4.8c1.3-5 4.5-6.7 10-6.7H319c3.8.2 5.3 1.9 4.3 5.5zm-.3-10.8h-26c-8.8 0-14.1 3.7-16.1 11.1l-4.3 16c-2.1 8 1.2 12 9.9 12h35.1l1.5-5.7h-34.5c-4.7 0-6.3-2.6-5.1-7.1l1.1-4.1H317c6.6 0 10.7-3 12.3-9l1.1-4.3c1.7-5.8-.8-8.9-7.4-8.9zm64.6 0h-29.4c-10.7 0-17.1 4.3-19.5 13l-3.5 13c-2.3 8.6 1.8 13 12.5 13h29.6l1.5-5.7h-29.6c-6.1 0-8.5-2.6-7.2-7.6l2.8-10.6c1.6-6 4-9.7 11.8-9.7H386l1.6-5.4zm-132.2 0l3.2-12h-6.8l-3.2 12H239l-1.5 5.4h9.6L242 44.5l-.3 1.1c-2.3 8.6 1.8 13 12.5 13h12.9l1.5-5.7h-12.9c-6.1 0-8.5-2.6-7.2-7.6l5.4-20.3h19.9l1.5-5.4h-19.9v-.1z"/>
  <path fill="#000" d="M394 56.8h1.6c.8 0 1.7.1 1.7 1.2 0 1.2-1 1.3-2 1.3H394v-2.5zm-1.2 6.7h1.2v-3.3h1.3l2.1 3.3h1.3l-2.2-3.4c1.2-.1 2-.7 2-2.1 0-1.5-.9-2.2-2.7-2.2h-2.9v7.7h-.1zm-2.8-3.8c0-3.2 2.3-5.6 5.4-5.6 3 0 5.4 2.4 5.4 5.6 0 3.2-2.3 5.6-5.4 5.6-3.1 0-5.4-2.4-5.4-5.6zm-1.2 0c0 3.7 3 6.6 6.6 6.6 3.6 0 6.5-2.8 6.5-6.6 0-3.7-3-6.5-6.5-6.5-3.6 0-6.6 2.8-6.6 6.5z"/>
</svg>
