<svg xmlns="http://www.w3.org/2000/svg" width="189" height="47" viewBox="0 0 189 47">
  <g fill="#000">
    <path d="M182.662 33.938l-1.437-4.188h-7.013l-1.525 4.188h-5.062l7.188-19.81h6.012l7.237 19.81h-5.4zm-4.575-14.524c-.137-.475-.225-.89-.312-1.395 0 .413-.2 1.007-.313 1.364l-2.112 6.713h4.687l-1.95-6.684zM166.025 33.937h-5.55l-3.9-7.632h-1.563v7.632h-5.087v-19.81h7.775c5.975 0 7.187 3.113 7.187 6.346 0 2.407-1.024 4.22-3.512 5.144l4.65 8.32zm-11.15-11.434h2.275c2.062 0 2.962-.683 2.962-2.317 0-1.485-1.075-2.258-3.225-2.258h-2.012v4.575zM133.7 14.128v11.366c0 1.75.137 2.613.562 3.296.538.89 1.45 1.396 2.513 1.396 1.162 0 2.15-.624 2.637-1.634.313-.683.363-1.128.363-3.03V14.127h5.087v12.297c0 2.702-.7 4.545-2.262 5.97-1.488 1.307-3.438 2.02-5.675 2.02-2.825 0-5.175-.952-6.613-2.644-1.225-1.426-1.7-3.12-1.7-5.94V14.126h5.088v.002zM123.962 33.225c-2.087.892-3.725 1.188-6.275 1.188-7.75 0-11.787-3.564-11.787-10.396 0-3.504 1.3-6.385 3.65-8.138 2-1.517 4.55-2.23 8-2.23 2.225 0 3.7.238 5.937.89l-.425 4.25c-1.612-.803-3.287-1.248-4.9-1.248-4.237 0-7.037 2.584-7.037 6.504 0 3.623 2.437 6.237 5.825 6.237.712 0 1.212-.09 2.15-.386v-7.455h4.862v10.782zM98.875 33.938l-1.438-4.188h-7.012L88.9 33.938h-5.063l7.188-19.81h6.012l7.238 19.81h-5.4zM94.3 19.415c-.138-.476-.225-.892-.313-1.396 0 .413-.2 1.007-.312 1.364l-2.113 6.713h4.688l-1.95-6.684v.002zM76.687 33.937l-.85-10.365c-.125-1.354-.262-2.58-.275-4.515-.512 2.05-.337 1.455-.45 1.84-.225.715-.512 1.723-.762 2.496l-3.363 10.544H66.4l-3.3-10.544c-.263-.773-.538-1.78-.763-2.495-.125-.386 0 .21-.462-1.84 0 1.934-.175 3.16-.263 4.514l-.862 10.365H56l2.137-19.81h6.688l2.087 6.593c1.163 3.594 1.55 5.02 1.95 7.277.138-1.218.25-1.723.625-3.03.363-1.337.338-1.218 1.013-3.355l2.35-7.485h6.65l2.137 19.81h-4.95z"/>
  </g>
  <path fill="#000" d="M47.15 23.11c0 12.765-10.35 23.112-23.113 23.112-12.762 0-23.112-10.347-23.112-23.11C.925 10.346 11.275 0 24.037 0 36.8 0 47.15 10.347 47.15 23.11z"/>
  <path fill="#FEED00" fill-rule="nonzero" d="M43.837 23.11c0 10.94-8.875 19.81-19.812 19.81-10.938 0-19.813-8.87-19.813-19.81S13.087 3.3 24.025 3.3c10.937 0 19.812 8.87 19.812 19.81"/>
  <path fill="#000" fill-rule="nonzero" d="M27.212 22.736c1.8-.05 3.588-.14 5.363-.27l.587 7.896c2.275-.168 4.538-.396 6.775-.687l-2.025-15.388c-4.55.593-9.175.9-13.875.9-4.712 0-9.337-.307-13.887-.9L8.125 29.675c2.237.29 4.5.52 6.775.687l.587-7.897c1.775.13 3.563.22 5.363.27l-.225 7.92c1.137.04 2.275.05 3.412.05 1.138 0 2.263-.02 3.4-.05l-.225-7.92z"/>
</svg>
