<svg version="1.1" xmlns="http://www.w3.org/2000/svg" xmlns:xlink="http://www.w3.org/1999/xlink"  width="600px" height="49.4px" viewbox="0 0 300 24.7" enable-background="new 0 0 300 24.7" xml:space="preserve">
<path d="M13.4,10.2H4.5V4.6h8.9c0.6,0,4.3,0.1,4.3,2.8C17.7,10.1,14.1,10.2,13.4,10.2 M24.5,24.7L15.1,14.5
  c3.1-0.4,7.2-2.201,7.2-7.101c0-5.7-5.7-7.3-8.9-7.3H0v24.6h4.5V14.5h4.6L18.4,24.7H24.5L24.5,24.7L24.5,24.7L24.5,24.7z M28.6,24.7
  h4.5V0.1h-4.5V24.7z M46.3,24.7h13.2v-4.5H46.3c-0.1,0-2.7,0-2.7-1.8v-3.8h13.7v-4.5H43.5V6.2c0-1.6,2.3-1.7,2.7-1.8h13.2V0H46.3
  C43.4,0,39,1.6,39,6.3v12C39,23,43.4,24.7,46.3,24.7 M68.6,6.7c-0.5-2.2,3.7-2.2,4.8-2.2h11V0H72.9c-4,0-9.5,1.3-9.2,7
  c0.3,4.5,5.4,5.7,9.8,6.9c2.8,0.8,6.3,1.5,6.7,3c0.7,3-3.7,3.2-5.1,3.2c-1.2,0-10.5,0-10.5,0v4.5h10.9c3.9,0,9.9-1.6,9.5-7.7
  c-0.3-4.8-5.6-5.7-10.4-7.2C71.5,8.8,68.9,8.1,68.6,6.7 M96.8,24.7H110v-4.5H96.8c-0.1,0-2.7,0-2.7-1.8v-3.8h13.7v-4.5H94V6.2
  c0-1.6,2.2-1.7,2.7-1.8H110V0H96.8c-2.9,0-7.2,1.6-7.2,6.3v12C89.5,23,93.9,24.7,96.8,24.7 M138.5,18.5l0.3-0.301l-2.7-2.699
  l-0.3,0.199c-1.2,1.301-2.3,2.2-2.6,2.6c-0.6,0.601-1.4,0.9-2.2,0.9c-0.1,0-4.6,0-4.7,0c-1.8,0-3.3-1.4-3.3-3.3
  c0-1.3,0.9-2.601,2.2-3.1l3.8,3.9l2.9-2.6c0,0-5.5-5.5-5.7-5.7c-0.3-0.3-0.3-0.5-0.3-0.9c0-0.7,0.5-1.3,1-1.3c0.1,0,2.2,0,2.3,0
  c0.5,0,0.9,0.6,0.9,1.3v0.4h3.9V7.4c0-2.8-2-5-4.7-5.1c0,0-0.4,0-2.4,0c-2.7,0-4.9,2.2-4.9,5.1c0,0.8,0.2,1.7,0.6,2.4
  c-2.1,1.3-3.4,3.6-3.4,6.1c0,3.899,3.3,7.101,7.2,7.101c0.1,0,4.7,0,4.8,0c1.8-0.101,3.6-0.801,4.9-2.101
  C136.2,20.7,137.2,19.6,138.5,18.5 M168.5,24.7h4.5l-0.6-24.6h-3.9l-9.4,14.699L149.6,0.1h-3.9l-0.5,24.6h4.5l0.4-15.9l6.8,10.701
  h4.3L168,8.8L168.5,24.7z M185.8,4.3h8V0.1h-8V4.3z M201.6,18.1v-18h-4.5v17.1c0,1.6-1.899,3.5-7.199,3.5c-5.301,0-7.2-1.9-7.2-3.5
  V0.1h-4.5V18c0,0.6,0.399,6.899,11.7,6.899C201.2,25,201.6,18.7,201.6,18.1 M214.1,24.7H225v-4.5h-10.9c-0.399,0-2.8-0.199-2.8-1.8
  V0.1h-4.5v18.3C206.9,23,211.3,24.7,214.1,24.7 M235.2,24.7H246v-4.5h-10.8c-0.5,0-2.8-0.199-2.8-1.8V0.1H228v18.3
  C228,23,232.3,24.7,235.2,24.7 M256.4,24.7H269.6v-4.5H256.4c-0.101,0-2.7,0-2.7-1.8v-3.8h13.7v-4.5h-13.7V6.2
  c0-1.6,2.2-1.7,2.7-1.8H269.6V0H256.4c-2.9,0-7.2,1.6-7.2,6.3v12C249.2,23,253.5,24.7,256.4,24.7 M293.1,7.4c0,2.7-3.6,2.9-4.3,2.9
  H279.9V4.6h8.899C289.5,4.6,293.1,4.6,293.1,7.4 M297.6,7.4c0-5.7-5.699-7.3-8.8-7.3H275.4v24.6h4.5V14.6h4.6l9.3,10.1h6.2
  L290.5,14.5C293.5,14,297.6,12.1,297.6,7.4"></path>
</svg>
