<svg xmlns="http://www.w3.org/2000/svg" width="734" height="240" viewBox="0 0 734 240">
  <g fill="#004388" fill-rule="evenodd">
    <path d="M732.045 19.116c.74.15 1.096.595 1.07 1.11-.02.344-.244.874-1.084.855-50.575-4.807-120.388-8.392-177.898-8.392-101.493 0-207.94 8.285-282.906 22.242C164.176 54.857 100.02 77.1 100.02 120.42c0 38.506 45.47 57.21 126.684 76.968 80.678 19.63 204.746 31.69 327.553 31.69 56.29 0 81.593 1.51 131.205-3.077.907-.07 1.446.505 1.422.984-.027.487-.74 1.075-1.69 1.15-62.505 7.5-132.548 11.705-206.52 11.705C214.807 239.84.91 186.365.91 120.394.91 54.427 214.806.95 478.673.95c93.073 0 179.927 6.653 253.368 18.163"/>
    <path d="M457.712 85h-17.6l-18.383 35.062h-.217L418.463 85h-18.042l-18.158 35.062h-.222L379.646 85H358l6.157 60.748h20.117l17.36-33.473h.217l2.757 33.476h19.353l33.744-60.744M469.86 120.512l10.143-17.626 2.107 17.626H469.86zm14.695 25.233h23.506L498.4 85h-24.27L437 145.745h18.693l7.315-11.953h20.01l1.537 11.956v-.003zM570.975 130.865H541.57L552.023 85h-23.176L515 145.745h52.585l3.39-14.878M603.642 108.282l2.342-10.27h8.967c4.374 0 8.827.618 7.8 5.136-.326 1.414-1.436 2.92-3.1 3.98-1.92 1.24-4.526 1.15-6.713 1.15h-9.293l-.002.004zm-5.45 23.907l2.5-10.977h9.077c2.073 0 4.696 0 6.483.8 1.985.884 2.984 2.744 2.518 4.78-.383 1.687-1.84 3.276-3.703 4.256-2.14 1.236-4.635 1.147-6.93 1.147h-9.948l.002-.008zm-24.19 13.553h34.332c6.774 0 14.883-.087 21.443-3.452 6.065-3.1 9.693-8.942 10.884-14.168 1.653-7.26-3.036-12.576-11.392-13.813l.044-.18c7.973-1.416 14.233-6.817 15.687-13.194 1.13-4.954-.692-9.915-5.056-12.84C635.87 85.357 630.156 85 624.47 85h-36.624L574 145.748l.003-.005zM706.608 131.225h-33.78l2.24-9.828h33.736l3.092-13.55H678.16l2.015-8.855h33.78L717.152 85h-56.304L647 145.748h56.305l3.31-14.52M351.472 85h-22.96l-5.106 22.402H305.7L310.805 85h-22.96L274 145.748h22.96l5.388-23.642h17.712l-5.388 23.645h22.96l13.843-60.744M248.056 124.425c-1.476 5.05-5.36 10.1-12.466 10.1-10.388 0-8.463-10.363-7.072-16.474 1.316-5.755 4.64-18.418 14.81-18.418 7.76 0 8.692 6.466 7.303 11.602l21.633-.885C274.18 95.207 265.346 86 246.217 86c-23.617 0-37.31 14.52-41.308 32.057-3.938 17.266 4.862 30.46 27.383 30.46 17.274 0 31.905-9.033 36.516-23.023l-20.75-1.064-.004-.005zM129 130.01c1.04 13.194 13.822 18.51 29.566 18.51 15.525 0 34.786-5.85 38.116-20.456 1.516-6.644-1.02-12.31-7.62-15.498-5.928-2.748-13.252-3.723-20.097-4.874-2.72-.533-8.046-1.15-7.318-4.34.726-3.186 5.26-3.898 8.32-3.898 5.794 0 9.585 1.597 10.744 6.113l20.09-4.695C198.613 90.34 187.03 86 174.023 86c-7.437 0-15.676 1.15-22.59 4.603-6.797 3.455-11.738 9.3-13.09 15.232-3.292 14.43 12.73 17.534 26.328 19.746 3.272.534 8.904 1.24 8.056 4.96-.766 3.367-6.75 3.72-9.704 3.72-6.665 0-11.25-1.948-11.986-7.35l-22.028 3.1H129z"/>
  </g>
</svg>
