<?xml version="1.0" encoding="UTF-8"?>
<svg width="147px" height="20px" viewBox="0 0 147 20" version="1.1" xmlns="http://www.w3.org/2000/svg" xmlns:xlink="http://www.w3.org/1999/xlink">
    <!-- Generator: Sketch 52.6 (67491) - http://www.bohemiancoding.com/sketch -->
    <title>Slice 1</title>
    <desc>Created with Sketch.</desc>
    <g id="Page-1" stroke="none" stroke-width="1" fill="none" fill-rule="evenodd">
        <g id="shimano-logo" fill="#00ADEF" fill-rule="nonzero">
            <path d="M15.776,7.707 L15.773,7.707 C15.663,7.699 15.595,7.699 15.595,7.699 L14.725,7.699 L14.725,7.706 L14.105,7.706 L14.105,7.696 L5.695,7.696 C5.209,7.696 4.835,7.308 4.835,6.579 L4.835,5.24 C4.835,4.567 5.101,4.18 5.749,4.18 L18.074,4.18 L18.074,0.116 L3.325,0.116 C3.325,0.116 0,0.057 0,3.722 L0,8.292 C0,11.444 3.107,11.914 3.107,11.914 L3.11,11.914 C3.22,11.921 13.19,11.947 13.19,11.947 C13.674,11.947 14.05,12.311 14.05,13.04 L14.05,14.38 C14.05,15.02 13.797,15.39 13.22,15.427 L0.033,15.427 L0.033,19.669 L15.558,19.733 C15.558,19.733 18.882,19.769 18.882,16.103 L18.882,11.326 C18.882,8.176 16.457,7.761 15.774,7.706 L15.776,7.707 Z M44.94,19.74 L50.87,19.74 L50.87,0 L44.94,0 L44.94,19.74 Z M35.45,0 L35.45,11.115 L27.526,11.115 L27.526,0 L21.596,0 L21.596,19.74 L27.526,19.74 L27.526,15.427 L35.451,15.427 L35.451,19.74 L41.381,19.74 L41.381,0 L35.451,0 L35.45,0 Z M81.324,2.852 C81.019,2.114 80.117,0.882 79.314,0.585 C78.288,0.21 77.36,0.12 76.683,0.06 C77.35,0.117 55.29,0.046 55.29,0.046 L55.29,19.67 L61.326,19.67 L61.326,3.35 L65.674,3.35 L65.674,19.67 L71.711,19.67 L71.711,3.35 L73.367,3.35 C73.341,3.364 73.321,3.372 73.294,3.387 C73.294,3.387 75.99,3.007 75.99,6.081 L76.024,6.037 L76.024,19.667 L81.827,19.667 L81.827,5.94 C81.827,5.94 81.917,4.292 81.323,2.852 L81.324,2.852 Z M104.035,2.852 C103.729,2.114 102.829,0.882 102.025,0.585 C101,0.21 99.84,0.12 99.16,0.06 C99.11,0.055 90.06,0.055 90.01,0.06 C89.332,0.12 88.17,0.21 87.147,0.585 C86.342,0.881 85.441,2.115 85.137,2.852 C84.543,4.292 84.63,5.94 84.63,5.94 L84.63,19.67 L90.31,19.67 L90.31,15.427 L98.5,15.427 L98.5,19.669 L104.538,19.669 L104.538,5.94 C104.538,5.94 104.625,4.292 104.033,2.852 L104.035,2.852 Z M90.309,12.122 L90.309,6.11 L90.344,6.153 C90.344,3.08 93.039,3.458 93.039,3.458 C93.013,3.444 92.992,3.435 92.965,3.423 L95.845,3.423 C95.819,3.435 95.798,3.443 95.771,3.458 C95.771,3.458 98.466,3.08 98.466,6.153 L98.501,6.11 L98.501,12.12 L90.31,12.12 L90.309,12.122 Z M125.597,2.85 C125.291,2.112 124.391,0.88 123.587,0.583 C122.564,0.207 121.403,0.117 120.724,0.058 C120.652,0.052 120.594,0.048 120.532,0.045 L120.515,0.045 C120.228,0.03 120.065,0.045 120.065,0.045 L107,0.045 L107,19.667 L113.04,19.667 L113.04,3.334 C113.04,3.334 117.36,3.319 117.335,3.334 C117.335,3.334 120.03,2.974 120.03,6.046 L120.065,19.668 L126.103,19.668 L126.103,5.94 C126.103,5.94 126.19,4.292 125.598,2.852 L125.597,2.85 Z M146.66,10.072 L146.66,5.94 C146.66,5.94 146.748,4.292 146.154,2.852 C145.849,2.114 144.947,0.882 144.144,0.585 C143.118,0.21 141.957,0.12 141.28,0.06 C141.238,0.056 140.38,0.05 138.986,0.05 L138.986,0.046 L136.256,0.046 L136.256,0.05 C134.861,0.05 134.04,0.056 133.996,0.06 C133.32,0.12 132.159,0.21 131.136,0.585 C130.33,0.881 129.429,2.115 129.124,2.852 C128.53,4.292 128.618,5.94 128.618,5.94 L128.618,13.994 C128.618,13.994 128.53,15.642 129.124,17.081 C129.429,17.821 130.33,19.053 131.134,19.351 C132.159,19.726 133.32,19.821 133.996,19.881 C134.05,19.886 135.736,19.885 137.136,19.881 C138.536,19.885 141.226,19.886 141.281,19.881 C141.959,19.821 143.121,19.726 144.144,19.351 C144.948,19.053 145.85,17.821 146.154,17.081 C146.749,15.643 146.661,13.995 146.661,13.995 L146.661,10.073 L146.66,10.072 Z M140.98,13.854 L140.944,13.81 C140.944,16.882 138.294,16.527 138.321,16.54 L136.885,16.54 C136.912,16.527 134.265,16.882 134.265,13.81 L134.227,13.854 L134.227,6.902 L134.263,6.946 C134.263,3.874 136.49,4.251 136.49,4.251 C136.462,4.237 136.91,4.231 136.884,4.216 L138.321,4.216 C138.296,4.23 138.781,4.236 138.754,4.252 C138.754,4.252 140.944,3.876 140.944,6.948 L140.98,6.904 L140.98,13.856 L140.98,13.854 Z" id="Shape"></path>
        </g>
    </g>
</svg>
