<svg id="Ebene_1" data-name="Ebene 1" xmlns="http://www.w3.org/2000/svg" width="650" height="54" viewbox="0 0 650 54">
  <defs>
    <style>
      .cls-1 {
        fill: #ee7d00;
      }

      .cls-2 {
        fill: #0a0515;
      }
    </style>
  </defs>
  <title>vdv-logo-black</title>
  <path class="cls-1" d="M352.31,25.15a2.57,2.57,0,1,1,0,5.14H325.61a6.18,6.18,0,0,0,.78,1.66,5.33,5.33,0,0,0,4.88,2.3h29.51a2.57,2.57,0,1,1,0,5.14H329.55a7.21,7.21,0,0,1-3.91-1.07,10.68,10.68,0,0,1-2.95-2.73c-.19-.27-.36-.55-.53-.84-.15.23-.3.46-.47.68a10.88,10.88,0,0,1-2.89,2.79,8,8,0,0,1-3.91,1.17H283.14a2.56,2.56,0,0,1-2.57-2.57V27.72a2.57,2.57,0,1,1,5.14,0v6.54h27.53a6.21,6.21,0,0,0,3-.64A5.51,5.51,0,0,0,318.06,32a5.25,5.25,0,0,0,.91-2.09,9.88,9.88,0,0,0,.27-2.14,9.15,9.15,0,0,0-.27-2.09,5.22,5.22,0,0,0-.91-2.14,5,5,0,0,0-1.82-1.61,5.85,5.85,0,0,0-3-.69h-30.1a2.57,2.57,0,1,1,0-5.14h31.23a8,8,0,0,1,4.12,1.07,10.58,10.58,0,0,1,3.11,2.79c.22.29.44.59.63.9.2-.31.41-.61.63-.9A10.59,10.59,0,0,1,326,17.11,8,8,0,0,1,330.09,16h30.69a2.57,2.57,0,1,1,0,5.14H331.27a6,6,0,0,0-3.06.69,5.74,5.74,0,0,0-1.82,1.61,6.33,6.33,0,0,0-.78,1.66ZM322.47,4.09c-29.49,0-53.39,10.2-53.39,22.79S293,49.67,322.47,49.67s53.39-10.2,53.39-22.79S352,4.09,322.47,4.09"/>
  <path class="cls-2" d="M446.56,6a4.31,4.31,0,0,1,1.31,3.17,3.78,3.78,0,0,1-.9,2.66l-.12.12L422,45.43a14.28,14.28,0,0,1-4.58,3.78,12.53,12.53,0,0,1-5.85,1.38,12.51,12.51,0,0,1-10-4.85l-25-33.4a7.08,7.08,0,0,1-1-1.45,4.24,4.24,0,0,1-.37-1.76A4.31,4.31,0,0,1,376.52,6a4.3,4.3,0,0,1,3.17-1.31,4.15,4.15,0,0,1,3.54,1.77l24,32c.48.56,1.1,1.21,1.8,1.9a4.11,4.11,0,0,0,2.57,1,3.62,3.62,0,0,0,2.47-1,14.35,14.35,0,0,0,1.81-1.91L440,6.33A4.43,4.43,0,0,1,446.56,6"/>
  <path class="cls-2" d="M458.13,39.54a3.52,3.52,0,1,1-7,0V14.65a3.52,3.52,0,1,1,7,0Z"/>
  <path class="cls-2" d="M472.71,43.06a10.33,10.33,0,0,1-3.88-.73,11.11,11.11,0,0,1-3.22-2.13,10.53,10.53,0,0,1-2.13-3.07,9.08,9.08,0,0,1-.8-3.81V14.64a3.51,3.51,0,0,1,3.52-3.51,3.3,3.3,0,0,1,2.41,1,3.29,3.29,0,0,1,1.1,2.49V33.32a2.61,2.61,0,0,0,.8,1.91,2.83,2.83,0,0,0,2,.8h43.94a3.52,3.52,0,1,1,0,7Z"/>
  <path class="cls-2" d="M534.52,43.06a10.33,10.33,0,0,1-3.88-.73,11.18,11.18,0,0,1-3.22-2.13,10.53,10.53,0,0,1-2.13-3.07,9.08,9.08,0,0,1-.8-3.81V14.64A3.51,3.51,0,0,1,528,11.13a3.3,3.3,0,0,1,2.41,1,3.29,3.29,0,0,1,1.1,2.49V33.32a2.61,2.61,0,0,0,.8,1.91,2.84,2.84,0,0,0,2,.8h43.94a3.52,3.52,0,1,1,0,7Z"/>
  <path class="cls-2" d="M601.39,18.16a8.15,8.15,0,0,0-4.17,1,7.72,7.72,0,0,0-2.49,2.2,8.56,8.56,0,0,0-1.06,2.27h36.49a3.51,3.51,0,1,1,0,7H593.66a7.93,7.93,0,0,0,1.06,2.27,8.62,8.62,0,0,0,2.49,2.27,8.71,8.71,0,0,0,4.17.88h40.35a3.51,3.51,0,1,1,0,7H599a9.87,9.87,0,0,1-5.34-1.46,14.51,14.51,0,0,1-4-3.73,19.63,19.63,0,0,1-3.37-10.77,18.43,18.43,0,0,1,.88-5.56,17.23,17.23,0,0,1,2.71-5.13,14.41,14.41,0,0,1,4.25-3.81,10.9,10.9,0,0,1,5.63-1.46h42a3.5,3.5,0,0,1,3.51,3.51,3.5,3.5,0,0,1-3.51,3.51Z"/>
  <path class="cls-2" d="M76.6,6A4.31,4.31,0,0,1,77.9,9.13a3.76,3.76,0,0,1-.9,2.66l-.12.12L52,45.43a14.28,14.28,0,0,1-4.58,3.78,12.53,12.53,0,0,1-5.85,1.38,12.79,12.79,0,0,1-5.65-1.29,12.63,12.63,0,0,1-4.36-3.56l-25-33.4a7.08,7.08,0,0,1-1-1.45,4.24,4.24,0,0,1-.37-1.76A4.31,4.31,0,0,1,6.56,6,4.3,4.3,0,0,1,9.72,4.66a4.15,4.15,0,0,1,3.54,1.77l24,32c.48.56,1.1,1.21,1.8,1.9a4.11,4.11,0,0,0,2.57,1,3.65,3.65,0,0,0,2.47-1,14,14,0,0,0,1.81-1.91L70,6.33A4.43,4.43,0,0,1,76.6,6"/>
  <path class="cls-2" d="M91.95,18.16a8.15,8.15,0,0,0-4.17,1,7.72,7.72,0,0,0-2.49,2.2,8.56,8.56,0,0,0-1.06,2.27h36.49a3.51,3.51,0,1,1,0,7H84.22a7.93,7.93,0,0,0,1.06,2.27,8.62,8.62,0,0,0,2.49,2.27,8.71,8.71,0,0,0,4.17.88H132.3a3.51,3.51,0,1,1,0,7H89.61a9.88,9.88,0,0,1-5.35-1.46,14.61,14.61,0,0,1-4-3.73,19.69,19.69,0,0,1-3.36-10.77,18.43,18.43,0,0,1,.88-5.56,17.23,17.23,0,0,1,2.71-5.13,14.41,14.41,0,0,1,4.25-3.81,10.9,10.9,0,0,1,5.63-1.46h42a3.5,3.5,0,0,1,3.51,3.51,3.5,3.5,0,0,1-3.51,3.51Z"/>
  <path class="cls-2" d="M150.39,43.06a10.33,10.33,0,0,1-3.88-.73,11.18,11.18,0,0,1-3.22-2.13,10.41,10.41,0,0,1-2.12-3.07,9,9,0,0,1-.81-3.81V14.65a3.51,3.51,0,0,1,3.52-3.52,3.3,3.3,0,0,1,2.41,1,3.29,3.29,0,0,1,1.1,2.49V33.32a2.61,2.61,0,0,0,.8,1.91,2.85,2.85,0,0,0,2,.81h43.94a3.51,3.51,0,1,1,0,7Z"/>
  <path class="cls-2" d="M246.77,36a8.55,8.55,0,0,0,4.1-.88,7.56,7.56,0,0,0,2.49-2.27A7.18,7.18,0,0,0,254.6,30,13.44,13.44,0,0,0,255,27.1a12.46,12.46,0,0,0-.36-2.86,7.18,7.18,0,0,0-1.24-2.93,7,7,0,0,0-2.49-2.2,8,8,0,0,0-4.1-.95H217.18a8.15,8.15,0,0,0-4.17.95,7.84,7.84,0,0,0-2.49,2.2,8.63,8.63,0,0,0-1.24,2.93,15.12,15.12,0,0,0-.3,2.86,16.32,16.32,0,0,0,.3,2.93A7.76,7.76,0,0,0,213,35.15a8.71,8.71,0,0,0,4.17.88Zm15-8.93a17.8,17.8,0,0,1-1,5.64,17,17,0,0,1-2.64,5.13,14.76,14.76,0,0,1-4.25,3.73,10.93,10.93,0,0,1-5.64,1.46H214.92a10.89,10.89,0,0,1-5.35-1.61,15.56,15.56,0,0,1-4-3.81,18.83,18.83,0,0,1-3.37-10.55,18.29,18.29,0,0,1,.88-5.57,17.18,17.18,0,0,1,2.71-5.13A14.3,14.3,0,0,1,210,12.6a10.91,10.91,0,0,1,5.64-1.46H249a10.51,10.51,0,0,1,5.35,1.69,13.66,13.66,0,0,1,4,3.73,17,17,0,0,1,2.56,5.06,18.06,18.06,0,0,1,.88,5.49"/>
</svg>
